# xmcd
#
# Track frame offsets:
#	150
#	13799
#	30461
#	50722
#	71318
#	85729
#	105448
#	129614
#	144588
#	163242
#	182566
#	196522
#	211017
#	222057
#	233359
#	254752
#	269184
#
# Disc length: 3765 seconds
#
# Revision: 1
# Processed by: cddbd v1.4PL0 Copyright (c) Steve Scherf et al.
# Submitted via: audiograbber 1.82.00
#
DISCID=eb0eb311
DTITLE=Collection - Line Dance Cd1
DYEAR=1900
DGENRE=Country
TTITLE0=Brooks and Dunn - Brand New Man
TTITLE1=Dean Seals - Bop
TTITLE2=M. Chapin Carpenter - I Feel Lucky
TTITLE3=Steve Earle - Copperheart Road
TTITLE4=Bellamy Brothers - Get Into Reaggae Cowboy
TTITLE5=Alan Jackson - Gone Country
TTITLE6=Hank Williams Jr. - Hog Wild
TTITLE7=Brooks and Dunn - Boot Scootin' Boogie
TTITLE8=Shania Twain - Any Man Of Mine
TTITLE9=Brother Phelps - Any Way The Wind Blows
TTITLE10=Scooter Lee - High Test Love
TTITLE11=Rick Trevino - Un Momento Alla
TTITLE12=J. D. Loudermilk - Blue Train
TTITLE13=Br 5-49 - Cheerokee Boogie
TTITLE14=Howell/seals - God Blessed Texas
TTITLE15=Alan Jackson - I'd Love You All Over Again
TTITLE16=Hal Ketchum - Small Town Saturday Night
EXTD=
EXTT0=
EXTT1=
EXTT2=
EXTT3=
EXTT4=
EXTT5=
EXTT6=
EXTT7=
EXTT8=
EXTT9=
EXTT10=
EXTT11=
EXTT12=
EXTT13=
EXTT14=
EXTT15=
EXTT16=
PLAYORDER=
